<?xml version="1.0" encoding="utf-8"?>
<!-- Generator: Adobe Illustrator 22.1.0, SVG Export Plug-In . SVG Version: 6.00 Build 0)  -->
<svg version="1.1" id="US_UK_Download_on_the" xmlns="http://www.w3.org/2000/svg" xmlns:xlink="http://www.w3.org/1999/xlink"
	 x="0px" y="0px" viewBox="0 0 135 40" style="enable-background:new 0 0 135 40;" xml:space="preserve">
<style type="text/css">
	.st0{fill:#A6A6A6;}
	.st1{fill:#FFFFFF;}
</style>
<g>
	<path class="st0" d="M130.2,40H4.7C2.1,40,0,37.9,0,35.3V4.7C0,2.1,2.1,0,4.7,0h125.5c2.6,0,4.8,2.1,4.8,4.7v30.5
		C135,37.9,132.8,40,130.2,40L130.2,40z"/>
	<path d="M134,35.3c0,2.1-1.7,3.8-3.8,3.8H4.7c-2.1,0-3.8-1.7-3.8-3.8V4.7c0-2.1,1.7-3.8,3.8-3.8h125.5c2.1,0,3.8,1.7,3.8,3.8V35.3
		L134,35.3z"/>
	<g>
		<path class="st1" d="M53.5,21.3l-2.4,8.4h-1.2l-1.7-6.1c-0.1-0.3-0.1-0.5-0.1-0.9l0,0c0,0.3-0.1,0.6-0.2,0.8l-1.7,6.2H45l-2.5-8.4
			h1.1l1.8,6.4c0.1,0.3,0.1,0.6,0.1,0.8l0,0c0-0.2,0.1-0.5,0.2-0.8l1.9-6.4h0.9l1.8,6.5c0.1,0.2,0.1,0.5,0.1,0.8l0,0
			c0-0.2,0.1-0.5,0.2-0.8l1.7-6.5C52.3,21.3,53.5,21.3,53.5,21.3z"/>
		<path class="st1" d="M55.1,22.2c-0.2,0-0.3-0.1-0.4-0.2s-0.2-0.3-0.2-0.4s0.1-0.3,0.2-0.4S55,21,55.1,21c0.2,0,0.3,0.1,0.4,0.2
			s0.2,0.3,0.2,0.4c0,0.2-0.1,0.3-0.2,0.4S55.2,22.2,55.1,22.2z M55.5,29.7h-1v-6h1V29.7z"/>
		<path class="st1" d="M62.5,29.7h-1v-3.4c0-1.3-0.5-1.9-1.4-1.9c-0.5,0-0.9,0.2-1.2,0.5s-0.5,0.8-0.5,1.4v3.4h-1v-6h1v1l0,0
			c0.5-0.8,1.1-1.1,2-1.1c0.7,0,1.2,0.2,1.5,0.6s0.5,1,0.5,1.8v3.7H62.5z"/>
		<path class="st1" d="M69.4,29.7h-1v-1l0,0c-0.4,0.8-1.1,1.2-2.1,1.2c-0.8,0-1.4-0.3-1.8-0.8s-0.7-1.3-0.7-2.2c0-1,0.3-1.8,0.8-2.4
			s1.2-0.9,2-0.9s1.4,0.3,1.8,1l0,0v-3.7h1V29.7z M68.4,27v-0.9c0-0.5-0.2-0.9-0.5-1.2c-0.3-0.3-0.7-0.5-1.2-0.5
			c-0.6,0-1,0.2-1.4,0.6s-0.5,1-0.5,1.8c0,0.7,0.2,1.2,0.5,1.6s0.8,0.6,1.3,0.6s1-0.2,1.3-0.6C68.3,28.1,68.4,27.6,68.4,27z"/>
		<path class="st1" d="M73.8,29.8c-0.9,0-1.6-0.3-2.1-0.8s-0.8-1.3-0.8-2.2c0-1,0.3-1.8,0.8-2.4s1.3-0.8,2.2-0.8
			c0.9,0,1.6,0.3,2.1,0.8s0.8,1.3,0.8,2.3S76.5,28.4,76,29S74.8,29.8,73.8,29.8z M73.9,24.4c-0.6,0-1.1,0.2-1.5,0.6s-0.5,1-0.5,1.7
			s0.2,1.3,0.5,1.7s0.8,0.6,1.5,0.6c0.6,0,1.1-0.2,1.4-0.6s0.5-1,0.5-1.7c0-0.8-0.2-1.3-0.5-1.7S74.5,24.4,73.9,24.4z"/>
		<path class="st1" d="M85.9,23.7l-1.8,6h-1l-1.2-4.3c0-0.2-0.1-0.3-0.1-0.6l0,0c0,0.1-0.1,0.3-0.1,0.5l-1.3,4.3h-1l-1.8-6h1
			l1.2,4.5c0,0.1,0.1,0.3,0.1,0.5l0,0c0-0.2,0-0.4,0.1-0.6l1.4-4.5h0.9l1.2,4.5c0,0.1,0.1,0.3,0.1,0.5l0,0c0-0.2,0-0.3,0.1-0.5
			l1.2-4.5h1V23.7z"/>
		<path class="st1" d="M86.7,29.5v-1c0.5,0.4,1.1,0.6,1.7,0.6c0.8,0,1.3-0.3,1.3-0.8c0-0.2,0-0.3-0.1-0.4s-0.2-0.2-0.3-0.3
			s-0.3-0.2-0.4-0.2s-0.3-0.1-0.5-0.2c-0.3-0.1-0.5-0.2-0.7-0.3s-0.4-0.2-0.5-0.4S87,26.2,86.9,26s-0.1-0.4-0.1-0.6
			c0-0.3,0.1-0.5,0.2-0.7s0.3-0.4,0.5-0.5s0.5-0.3,0.7-0.3s0.6-0.1,0.9-0.1c0.5,0,1,0.1,1.4,0.3v1c-0.4-0.3-0.9-0.4-1.5-0.4
			c-0.2,0-0.3,0-0.5,0.1s-0.3,0.1-0.4,0.2s-0.2,0.2-0.2,0.3s-0.1,0.2-0.1,0.3c0,0.2,0,0.3,0.1,0.4s0.1,0.2,0.2,0.3s0.2,0.2,0.4,0.2
			s0.3,0.1,0.5,0.2c0.3,0.1,0.5,0.2,0.7,0.3s0.4,0.2,0.5,0.4s0.3,0.3,0.3,0.5s0.1,0.4,0.1,0.6c0,0.3-0.1,0.6-0.2,0.8
			s-0.3,0.4-0.5,0.5s-0.5,0.3-0.8,0.3s-0.6,0.1-0.9,0.1C87.7,29.8,87.1,29.7,86.7,29.5z"/>
		<path class="st1" d="M95.2,29.4v-1.2c0.1,0.1,0.3,0.2,0.5,0.3s0.4,0.2,0.6,0.2s0.4,0.1,0.6,0.1s0.4,0.1,0.6,0.1
			c0.6,0,1.1-0.1,1.4-0.3s0.4-0.5,0.4-1c0-0.2,0-0.4-0.1-0.6s-0.2-0.3-0.4-0.5s-0.4-0.3-0.6-0.4s-0.5-0.3-0.8-0.4s-0.6-0.3-0.8-0.5
			S96,25,95.8,24.8s-0.3-0.4-0.4-0.6s-0.2-0.5-0.2-0.8c0-0.4,0.1-0.7,0.3-1s0.4-0.5,0.7-0.7s0.6-0.3,0.9-0.4s0.7-0.1,1.1-0.1
			c0.8,0,1.4,0.1,1.8,0.3v1.1c-0.6-0.4-1.2-0.6-2-0.6c-0.2,0-0.4,0-0.6,0.1s-0.4,0.1-0.6,0.2s-0.3,0.2-0.4,0.4s-0.2,0.4-0.2,0.6
			s0,0.4,0.1,0.6s0.2,0.3,0.4,0.4s0.3,0.3,0.6,0.4s0.5,0.3,0.8,0.4s0.6,0.3,0.9,0.5s0.5,0.3,0.7,0.5s0.4,0.4,0.5,0.7
			s0.2,0.5,0.2,0.8c0,0.4-0.1,0.8-0.2,1.1s-0.4,0.5-0.7,0.7s-0.6,0.3-1,0.4s-0.7,0.1-1.1,0.1c-0.1,0-0.3,0-0.5,0s-0.4-0.1-0.6-0.1
			s-0.4-0.1-0.6-0.2S95.3,29.4,95.2,29.4z"/>
		<path class="st1" d="M104.2,29.6c-0.2,0.1-0.5,0.2-0.9,0.2c-1.1,0-1.6-0.6-1.6-1.8v-3.6h-1v-0.8h1v-1.5l1-0.3v1.8h1.5v0.8h-1.5
			v3.4c0,0.4,0.1,0.7,0.2,0.9s0.4,0.3,0.7,0.3c0.2,0,0.5-0.1,0.6-0.2C104.2,28.8,104.2,29.6,104.2,29.6z"/>
		<path class="st1" d="M108,29.8c-0.9,0-1.6-0.3-2.1-0.8s-0.8-1.3-0.8-2.2c0-1,0.3-1.8,0.8-2.4s1.3-0.8,2.2-0.8
			c0.9,0,1.6,0.3,2.1,0.8s0.8,1.3,0.8,2.3s-0.3,1.7-0.8,2.3S108.9,29.8,108,29.8z M108.1,24.4c-0.6,0-1.1,0.2-1.5,0.6
			s-0.5,1-0.5,1.7s0.2,1.3,0.5,1.7s0.8,0.6,1.5,0.6c0.6,0,1.1-0.2,1.4-0.6s0.5-1,0.5-1.7c0-0.8-0.2-1.3-0.5-1.7
			S108.7,24.4,108.1,24.4z"/>
		<path class="st1" d="M115.6,24.7c-0.2-0.1-0.4-0.2-0.7-0.2c-0.4,0-0.8,0.2-1,0.6s-0.4,0.9-0.4,1.6v3.1h-1v-6h1V25l0,0
			c0.1-0.4,0.3-0.8,0.6-1s0.6-0.4,0.9-0.4s0.4,0,0.6,0.1V24.7z"/>
		<path class="st1" d="M121.5,26.9h-4.2c0,0.7,0.2,1.2,0.5,1.5s0.8,0.5,1.4,0.5c0.7,0,1.3-0.2,1.9-0.7v0.9c-0.5,0.4-1.2,0.6-2.1,0.6
			c-0.8,0-1.5-0.3-2-0.8s-0.7-1.3-0.7-2.3c0-0.9,0.3-1.7,0.8-2.3s1.2-0.9,2-0.9s1.4,0.3,1.8,0.8s0.6,1.2,0.6,2.1L121.5,26.9
			L121.5,26.9z M120.5,26.1c0-0.6-0.1-1-0.4-1.3s-0.6-0.5-1.1-0.5s-0.8,0.2-1.2,0.5s-0.5,0.7-0.6,1.3H120.5z"/>
	</g>
	<g>
		<path class="st1" d="M43.1,16.5v-5.6h1.5c2,0,3,0.9,3,2.7c0,0.9-0.3,1.6-0.8,2.1s-1.3,0.8-2.2,0.8C44.6,16.5,43.1,16.5,43.1,16.5z
			 M43.8,11.5v4.4h0.8c0.7,0,1.3-0.2,1.7-0.6s0.6-1,0.6-1.7c0-1.4-0.8-2.2-2.3-2.2h-0.8V11.5z"/>
		<path class="st1" d="M50.6,16.6c-0.6,0-1.1-0.2-1.4-0.6s-0.5-0.9-0.5-1.5c0-0.7,0.2-1.2,0.6-1.6s0.9-0.6,1.5-0.6s1.1,0.2,1.4,0.6
			s0.5,0.9,0.5,1.5s-0.2,1.1-0.5,1.5S51.2,16.6,50.6,16.6z M50.6,13c-0.4,0-0.7,0.1-1,0.4s-0.4,0.7-0.4,1.2s0.1,0.8,0.4,1.1
			s0.6,0.4,1,0.4s0.7-0.1,1-0.4s0.3-0.6,0.3-1.1s-0.1-0.9-0.3-1.2S51,13,50.6,13z"/>
		<path class="st1" d="M58.9,12.5l-1.2,4H57l-0.8-2.9c0-0.1-0.1-0.2-0.1-0.4l0,0c0,0.1,0,0.2-0.1,0.4l-0.9,2.9h-0.6l-1.2-4H54l0.8,3
			c0,0.1,0,0.2,0.1,0.4l0,0c0-0.1,0-0.2,0.1-0.4l0.9-3h0.6l0.8,3c0,0.1,0,0.2,0.1,0.4l0,0c0-0.1,0-0.2,0.1-0.4l0.8-3H58.9z"/>
		<path class="st1" d="M63.2,16.5h-0.6v-2.3c0-0.8-0.3-1.3-0.9-1.3c-0.3,0-0.6,0.1-0.8,0.4s-0.3,0.5-0.3,0.9v2.3H60v-4h0.6v0.7l0,0
			c0.3-0.5,0.7-0.8,1.3-0.8c0.4,0,0.8,0.1,1,0.4s0.3,0.7,0.3,1.2V16.5z"/>
		<path class="st1" d="M65.2,16.5h-0.6v-5.9h0.6V16.5z"/>
		<path class="st1" d="M68.5,16.6c-0.6,0-1.1-0.2-1.4-0.6s-0.5-0.9-0.5-1.5c0-0.7,0.2-1.2,0.6-1.6s0.9-0.6,1.5-0.6s1.1,0.2,1.4,0.6
			c0.3,0.4,0.5,0.9,0.5,1.5s-0.2,1.1-0.5,1.5C69.5,16.4,69.1,16.6,68.5,16.6z M68.5,13c-0.4,0-0.7,0.1-1,0.4s-0.4,0.7-0.4,1.2
			s0.1,0.8,0.4,1.1s0.6,0.4,1,0.4s0.7-0.1,1-0.4s0.3-0.6,0.3-1.1s-0.1-0.9-0.3-1.2S68.9,13,68.5,13z"/>
		<path class="st1" d="M74.6,16.5H74v-0.6l0,0c-0.3,0.5-0.7,0.7-1.2,0.7c-0.4,0-0.7-0.1-0.9-0.3c-0.2-0.2-0.3-0.5-0.3-0.8
			c0-0.7,0.4-1.2,1.3-1.3l1.2-0.2c0-0.7-0.3-1-0.8-1s-0.9,0.2-1.3,0.5v-0.7c0.4-0.3,0.8-0.4,1.4-0.4c0.9,0,1.4,0.5,1.4,1.5v2.6H74.6
			z M73.9,14.5l-1,0.1c-0.3,0-0.5,0.1-0.7,0.2S72,15.1,72,15.4c0,0.2,0.1,0.4,0.2,0.5s0.3,0.2,0.6,0.2c0.3,0,0.6-0.1,0.8-0.3
			s0.3-0.5,0.3-0.8C73.9,15,73.9,14.5,73.9,14.5z"/>
		<path class="st1" d="M79.4,16.5h-0.6v-0.7l0,0c-0.3,0.5-0.8,0.8-1.4,0.8c-0.5,0-0.9-0.2-1.2-0.5s-0.5-0.8-0.5-1.5
			c0-0.7,0.2-1.2,0.5-1.6s0.8-0.6,1.3-0.6s0.9,0.2,1.2,0.6l0,0v-2.5h0.6L79.4,16.5L79.4,16.5z M78.8,14.7v-0.6
			c0-0.3-0.1-0.6-0.3-0.8S78,13,77.7,13c-0.4,0-0.7,0.1-0.9,0.4s-0.3,0.7-0.3,1.2s0.1,0.8,0.3,1.1s0.5,0.4,0.9,0.4s0.6-0.1,0.9-0.4
			S78.8,15.1,78.8,14.7z"/>
		<path class="st1" d="M85.4,11.2c-0.1-0.1-0.3-0.1-0.4-0.1c-0.4,0-0.7,0.3-0.7,0.8v0.6h0.9V13h-0.9v3.5h-0.6V13H83v-0.5h0.7v-0.6
			c0-0.4,0.1-0.8,0.4-1s0.5-0.4,0.9-0.4c0.2,0,0.4,0,0.5,0.1L85.4,11.2L85.4,11.2z"/>
		<path class="st1" d="M88.2,13.2c-0.1-0.1-0.3-0.1-0.5-0.1c-0.3,0-0.5,0.1-0.7,0.4s-0.3,0.6-0.3,1.1v2h-0.6v-4h0.6v0.8l0,0
			c0.1-0.3,0.2-0.5,0.4-0.7s0.4-0.2,0.6-0.2s0.3,0,0.4,0.1L88.2,13.2L88.2,13.2z"/>
		<path class="st1" d="M90.8,16.6c-0.6,0-1.1-0.2-1.4-0.6s-0.5-0.9-0.5-1.5c0-0.7,0.2-1.2,0.6-1.6s0.9-0.6,1.5-0.6s1.1,0.2,1.4,0.6
			s0.5,0.9,0.5,1.5s-0.2,1.1-0.5,1.5S91.4,16.6,90.8,16.6z M90.9,13c-0.4,0-0.7,0.1-1,0.4s-0.4,0.7-0.4,1.2s0.1,0.8,0.4,1.1
			s0.6,0.4,1,0.4s0.7-0.1,1-0.4s0.3-0.6,0.3-1.1s-0.1-0.9-0.3-1.2S91.3,13,90.9,13z"/>
		<path class="st1" d="M99.8,16.5h-0.6v-2.3c0-0.4-0.1-0.8-0.2-1S98.6,13,98.2,13c-0.3,0-0.5,0.1-0.7,0.4s-0.3,0.5-0.3,0.9v2.3h-0.6
			v-2.4c0-0.8-0.3-1.2-0.9-1.2c-0.3,0-0.5,0.1-0.7,0.4s-0.3,0.5-0.3,0.9v2.3h-0.6v-4h0.6v0.6l0,0c0.3-0.5,0.7-0.7,1.2-0.7
			c0.3,0,0.5,0.1,0.7,0.2s0.3,0.4,0.4,0.6c0.3-0.6,0.7-0.8,1.3-0.8c0.9,0,1.3,0.5,1.3,1.6v2.4H99.8z"/>
	</g>
	<g>
		<polygon class="st1" points="12.8,12.6 20.8,11.4 20.8,19.3 12.8,19.3 		"/>
		<polygon class="st1" points="12.8,20.1 20.8,20.1 20.8,27.9 12.8,26.9 		"/>
		<polygon class="st1" points="32.5,9.7 32.5,19.1 21.8,19.3 21.8,11.2 		"/>
		<polygon class="st1" points="32.5,20.3 32.5,29.5 21.8,28.1 21.8,20.3 		"/>
	</g>
</g>
</svg>
